<?xml version="1.0" encoding="utf-8"?>
<!-- Generator: Adobe Illustrator 27.0.0, SVG Export Plug-In . SVG Version: 6.00 Build 0)  -->
<svg version="1.1" id="Capa_1" xmlns="http://www.w3.org/2000/svg" xmlns:xlink="http://www.w3.org/1999/xlink" x="0px" y="0px"
	 viewBox="0 0 1090.9 1080" style="enable-background:new 0 0 1090.9 1080;" xml:space="preserve">
<style type="text/css">
	.st0{fill:#F4BC20;}
	.st1{font-family:'Poppins-Light';}
	.st2{font-size:45.6334px;}
</style>
<g id="FONDO">
</g>
<g id="C">
</g>
<g id="R">
</g>
<g id="E">
</g>
<g id="D">
</g>
<g id="I">
</g>
<g id="T">
</g>
<g id="O">
</g>
<g id="S">
</g>
<g id="P1">
</g>
<g id="A1">
</g>
<g id="Y1">
</g>
<g id="_x26_">
</g>
<g id="P2">
</g>
<g id="L">
</g>
<g id="A2">
</g>
<g id="Y2">
</g>
<g id="Curva">
</g>
<g>
	<g>
		<path class="st0" d="M466.3,335.2c26.4,0,52.3-0.4,78.1,0.1c37.5,0.7,75.1,1,112.6,3.4c16.7,1.1,33.8,5.3,49.6,11
			c20.4,7.3,33.5,23.2,38.7,44.5c6.9,28.2,6.2,56.5-2.2,84.3c-6.2,20.3-19.3,35.4-39.2,43.6c-11.2,4.6-23,7.8-35.1,11.9
			c3.9-15,7.4-28.5,11-42c0.4-1.4,1.7-3.1,2.9-3.6c13.9-5.5,19.7-17.3,21.2-30.6c1.6-14.3,2.2-28.9,0.8-43.2
			c-1.5-15.6-11-27.6-26.3-31.5c-16.9-4.3-34.5-7.8-51.9-8.4c-50-1.6-100.1-1.6-150.2-2.1c-3.1,0-6.2,0-10,0
			C466.3,359.8,466.3,347.8,466.3,335.2z"/>
		<path class="st0" d="M623.7,211.8c-38.1,0-73.6-0.9-109.1,0.3c-26.6,0.9-53.4,3-79.7,7.1c-21.1,3.3-40.1,12.6-46,36.3
			c-4,15.9-4.9,32.3,0.7,47.9c2.4,6.9,7.2,13.9,12.8,18.5c5.1,4.2,7,8.1,6.9,14.1c-0.2,10.5-0.1,20.9-0.1,31.5
			c-30.7-3-59.1-29.5-64.4-58.4c-3.9-21.3-3.8-42.6,1-63.6c7.3-32.5,28.9-52.5,60.7-58.7c30.6-6,61.8-9.8,92.9-11.7
			c33.5-2,67.1-0.4,100.7-0.7c6-0.1,9.6,1.8,11.7,7.3C615.7,191.9,619.8,202,623.7,211.8z"/>
		<path class="st0" d="M401.4,791.7c-5.7,32.4-11.4,64.9-17.1,97.7c-8.8,0-17.2,0-26.6,0c11-59.5,21.9-118.6,32.9-177.6
			c0.6-0.1,1.2-0.2,1.8-0.2c19.1,40.1,38.3,80.2,58.3,122.2c19.9-41.7,39.2-82,59.6-124.7c11.4,61.6,22.4,120.6,33.4,180.3
			c-9.1,0-17.5,0-26.7,0c-5.7-32.3-11.4-64.7-17-97c-0.6-0.2-1.2-0.4-1.9-0.6c-15.5,33.1-31.1,66.3-47.4,101.2
			c-16.3-34.8-31.8-68-47.4-101.2C402.6,791.7,402,791.7,401.4,791.7z"/>
		<path class="st0" d="M341.1,423.8c15.3,0,28.6,0,42.6,0c0.7,9.6,1.3,19.1,2.2,28.6c2.1,22.7,12,35.5,34.4,39.5
			c23.7,4.2,47.9,7.5,71.9,8c40.9,0.9,81.9-0.6,122.9-1.1c2,0,3.9,0,7.1,0c-2.5,13.8-7.9,25.7-15.7,36.5c-1.1,1.5-4.6,1.9-7,1.9
			c-53.5-0.8-107-1.2-160.4-3c-14.8-0.5-29.8-4.5-44.2-8.8c-28.1-8.3-45.5-27.7-50.5-56.5C341.9,454.5,342.1,439.6,341.1,423.8z"/>
		<path class="st0" d="M474.2,219.6c-22.1,91.3-19.3,181.4-0.9,273.3c-14.2-1.6-28.5-3.1-42.7-5.2c-1.6-0.2-3.3-4.1-3.8-6.5
			c-9.4-41.3-11.5-83.3-11-125.5c0.4-35.6,1.4-71.1,9.3-106c0.4-1.9,0.9-3.9,1.4-5.8c5-19.7,5-19.7,25.6-21.8
			C459.4,221.3,466.6,220.5,474.2,219.6z"/>
		<path class="st0" d="M675.6,241.9c-15.2,0-28.2,0-42.3,0c-1-8-1.7-16-3.1-24c-3.6-21.1-10.8-40.7-26.9-55.7
			c-18.8-17.5-41.9-18.5-65.6-16.2c-16,1.6-30.3,7.1-41.3,19.6c-1.5,1.7-4.3,2.8-6.6,3c-14.4,1.3-28.8,2.3-44,3.5
			c10.1-21.2,23.7-39.5,44.3-50.1c36-18.6,74.2-21.5,112.3-7.5c38.7,14.2,57.2,45.8,66.3,83.8C672.1,212.1,673.3,226.6,675.6,241.9z
			"/>
		<path class="st0" d="M441.3,541.6c16.8,0.8,32.4,1.4,48,2.6c2.6,0.2,5.5,2.6,7.4,4.8c9.4,10.9,21.1,17.3,35.4,18.4
			c10.4,0.8,21.2,2.1,31.4,0.5c38-5.8,55.2-32.8,64.6-66.6c2.9-10.6,4.5-21.6,6.8-33.2c13.1,0,26.6,0,42.3,0
			c-3.2,15.8-5.2,31.5-9.5,46.6c-6.6,22.9-17.4,43.8-35.1,60.5c-23.8,22.4-52.5,30.7-84.5,30.1c-21.8-0.4-43.1-2.7-62.6-13.6
			C465.4,580.3,451.3,563.9,441.3,541.6z"/>
		<path class="st0" d="M675.1,779.8c0,8.4,0,15.7,0,24.1c-24.5,0-48.8,0-73.5,0c0,20.6,0,40,0,60.2c26.1,0,51.8,0,78.3,0
			c0,8.7,0,16.7,0,25.2c-34.5,0-68.7,0-103.7,0c0-58.5,0-117.2,0-176.5c33.8,0,67.7,0,102.3,0c0,7.4,0,14.9,0,23.4
			c-25.6,0-51,0-76.9,0c0,14.8,0,28.6,0,43.6C626,779.8,650.3,779.8,675.1,779.8z"/>
		<path class="st0" d="M256.3,736.2c0,15,0,28.8,0,43.6c24.3,0,48.3,0,73,0c0,8.5,0,15.9,0,24.3c-24.5,0-48.5,0-73,0
			c0,20.4,0,39.9,0,60.2c26.1,0,51.9,0,78.2,0c0,8.7,0,16.5,0,24.9c-34.5,0-69,0-103.9,0c0-58.8,0-117.3,0-176.5
			c34.1,0,68.1,0,102.5,0c0,7.6,0,14.9,0,23.4C307.6,736.2,282.2,736.2,256.3,736.2z"/>
		<path class="st0" d="M197.7,859.6c0,8.5,0.6,16.2-0.3,23.7c-0.3,2.5-4,5.7-6.8,6.5c-49.6,15-104.1-18.6-113.9-69.9
			c-11.8-61.6,33.5-113.8,96.4-110.9c22.6,1,24.6,3.1,24.5,25.4c0,2.4-0.2,4.9-0.3,7.5c-38.3-13-63.8-6.9-82.3,19.2
			c-17.6,24.8-16.7,58.8,2.2,82.7C136.6,867.9,163.6,873.6,197.7,859.6z"/>
		<path class="st0" d="M813.3,712.8c0,7.7,0,15.2,0,23.5c-14.3,0-28.1,0-43.1,0c0,51.4,0,102,0,153.1c-9,0-16.9,0-26,0
			c0-50.8,0-101.5,0-152.8c-15.1,0-28.9,0-43.4,0c0-8.2,0-15.7,0-23.8C738,712.8,775.4,712.8,813.3,712.8z"/>
		<path class="st0" d="M963.8,712.7c0,7.8,0,15.4,0,22.8c-0.4,0.3-0.6,0.6-0.9,0.6c-28,2.7-41,20.2-47.4,46
			c-5.3,21.7-11.7,43.4-19.8,64.2c-10.9,28-36.3,43.5-66.9,43.2c0-8.1,0-16.2,0-24.8c27-1,40.3-17.1,46.7-41.6
			c5.2-20,11.2-39.9,17.6-59.6c9.1-28,27.7-45.7,57.5-50.4c2.5-0.4,5.1-0.6,7.6-0.7C960,712.3,961.7,712.6,963.8,712.7z"/>
		<path class="st0" d="M1016,889.6c-8.5,0-16.1,0-24.4,0c0-58.8,0-117.4,0-176.8c7.8,0,15.8,0,24.4,0
			C1016,771.5,1016,830.1,1016,889.6z"/>
		<path class="st0" d="M700,279.2c-2.2-11.3-4.1-21.6-6.4-31.8c-0.7-3-1.9-6.4-4-8.4c-10.5-9.4-10.6-22.5-13.2-34.7
			c-1.6-7.4-3.4-14.8-5.2-22.3c53.8,13,69.8,42.6,67.9,97.1C725.9,279.2,712.7,279.2,700,279.2z"/>
	</g>
	<text transform="matrix(1.0864 0 0 1 210.1641 948.7286)" class="st0 st1 st2">INGENIERIA Y CONSTRUCCIÓN</text>
</g>
</svg>
